<?xml version="1.0" encoding="UTF-8" standalone="no"?>
<svg
   version="1.0"
   width="432.000000pt"
   height="432.000000pt"
   viewBox="0 0 432.000000 432.000000"
   preserveAspectRatio="xMidYMid meet"
   id="svg4"
   sodipodi:docname="favicon.svg"
   inkscape:version="1.3.2 (091e20e, 2023-11-25, custom)"
   xmlns:inkscape="http://www.inkscape.org/namespaces/inkscape"
   xmlns:sodipodi="http://sodipodi.sourceforge.net/DTD/sodipodi-0.dtd"
   xmlns="http://www.w3.org/2000/svg"
   xmlns:svg="http://www.w3.org/2000/svg">
  <defs
     id="defs4" />
  <sodipodi:namedview
     id="namedview4"
     pagecolor="#505050"
     bordercolor="#ffffff"
     borderopacity="1"
     inkscape:showpageshadow="0"
     inkscape:pageopacity="0"
     inkscape:pagecheckerboard="1"
     inkscape:deskcolor="#505050"
     inkscape:document-units="pt"
     inkscape:zoom="0.99805174"
     inkscape:cx="155.30257"
     inkscape:cy="444.36574"
     inkscape:window-width="1920"
     inkscape:window-height="1009"
     inkscape:window-x="1912"
     inkscape:window-y="-8"
     inkscape:window-maximized="1"
     inkscape:current-layer="g4" />
  <metadata
     id="metadata1">
Created by potrace 1.16, written by Peter Selinger 2001-2019
</metadata>
  <g
     transform="matrix(0.1,0,0,-0.1,0,432)"
     fill="#171717"
     stroke="none"
     id="g4"
     style="display:inline">
    <path
       d="m 721,3409 c -170,-33 -319,-183 -350,-354 -15,-78 -15,-1530 -1,-1606 34,-180 179,-325 359,-359 74,-14 2788,-14 2862,0 180,34 325,179 359,359 14,73 14,1529 0,1602 -34,180 -179,325 -359,359 -67,12 -2805,12 -2870,-1 z M 900,3060 V 2880 H 720 540 v 68 c 0,94 23,156 80,213 56,56 112,77 208,78 l 72,1 z M 3240,2250 V 1260 H 2160 1080 v 990 990 h 1080 1080 z m 365,973 c 56,-19 121,-79 150,-138 13,-27 21,-68 23,-122 l 4,-83 h -181 -181 v 180 180 h 68 c 38,0 90,-7 117,-17 z M 900,2520 V 2340 H 720 540 v 180 180 h 180 180 z m 2880,0 v -180 h -180 -180 v 180 180 h 180 180 z M 900,1980 V 1800 H 720 540 v 180 180 h 180 180 z m 2880,0 v -180 h -180 -180 v 180 180 h 180 180 z M 900,1440 v -180 h -68 c -94,0 -156,23 -212,80 -57,56 -80,118 -80,212 v 68 h 180 180 z m 2880,112 c 0,-93 -22,-153 -79,-211 -56,-58 -117,-81 -213,-81 h -68 v 180 180 h 180 180 z"
       id="path1"
       style="fill:#212121;fill-opacity:1" />
    <path
       style="display:none;fill:#e5007b;fill-opacity:1;stroke-width:0.708487"
       d="m 324.59074,344.86032 c 10.67622,-36.38914 24.3046,-79.88615 25.02974,-79.88615 1.14811,0 55.98838,61.77172 55.98838,63.06494 0,0.2935 -0.71735,0.73397 -1.5941,0.97883 -7.28639,2.03493 -54.74073,13.57667 -78.95938,19.20433 -1.55534,0.36141 -1.55589,0.35748 -0.46464,-3.36195 z"
       id="path5"
       transform="matrix(7.5,0,0,-7.5,0,4320)" />
    <path
       style="display:none;fill:#e5007b;fill-opacity:1;stroke-width:0.708487"
       d="m 257.13975,363.55965 c 0.19986,-0.64267 2.13762,-7.19352 4.30613,-14.55743 6.67764,-22.67616 35.89784,-118.47958 39.40441,-129.1941 1.17964,-3.60443 2.40925,-6.55351 2.73247,-6.55351 0.32323,0 6.40931,6.45609 13.52463,14.34687 7.11531,7.89077 13.82924,15.30886 14.91985,16.48464 l 1.98291,2.13777 -13.78918,44.85037 c -7.58405,24.66771 -15.07865,48.94035 -16.65466,53.93922 l -2.86547,9.08885 -5.46481,1.46938 c -6.36392,1.71114 -23.27479,5.79097 -32.2353,7.77693 -5.66309,1.25513 -6.19159,1.27415 -5.86098,0.21101 z"
       id="path6"
       transform="matrix(7.5,0,0,-7.5,0,4320)" />
    <path
       style="display:none;fill:#e5007b;fill-opacity:1;stroke-width:0.708487"
       d="m 187.70182,380.57083 c 0.19907,-0.6468 2.57886,-8.50884 5.28841,-17.4712 18.30289,-60.54025 62.53562,-201.91699 63.46474,-202.84611 0.25962,-0.25962 2.12324,1.2775 4.14137,3.41582 4.89304,5.18443 24.70701,28.04365 25.43446,29.34353 1.08685,1.94209 -2.64588,15.83258 -15.72043,58.50005 -2.80603,9.15719 -8.76195,28.60516 -13.23538,43.21771 -14.54691,47.51774 -23.07189,74.73419 -23.5839,75.29278 -0.46394,0.50615 -30.33412,8.20317 -41.34145,10.65296 -4.44974,0.99033 -4.78267,0.98243 -4.44782,-0.10554 z"
       id="path7"
       transform="matrix(7.5,0,0,-7.5,0,4320)" />
  </g>
  <path
     d="m 188.57616,124.76568 c 3.63348,1.45339 5.65803,3.74718 8.226,6.65081 0.41086,0.46139 0.8217,0.92276 1.24499,1.39812 1.20524,1.35653 2.40143,2.72106 3.59728,4.08589 0.58238,0.663 1.16477,1.32601 1.7648,2.0091 1.03543,1.183 2.06857,2.36803 3.09933,3.55512 2.66233,3.03434 5.38235,6.01644 8.09841,9.00266 0.65097,0.73761 1.30193,1.47521 1.97263,2.23518 0.71836,0.68946 1.43671,1.37895 2.17683,2.08931 2.31778,3.83765 1.60495,6.72803 0.62351,10.97895 -0.88151,3.14215 -1.9356,6.20383 -3.0337,9.27613 -2.16542,6.25757 -4.18507,12.50414 -5.89239,18.90231 -1.69735,6.33568 -3.67415,12.529 -5.79623,18.73413 -1.62506,4.80031 -3.04278,9.62558 -4.35503,14.51994 -1.92253,7.15333 -4.18339,14.16141 -6.56945,21.17281 -1.90335,5.59597 -3.6453,11.20604 -5.2299,16.90165 -0.97002,2.52371 -1.52966,3.39203 -3.66087,5.03916 -2.31437,0.71986 -4.52774,1.30021 -6.88782,1.80855 -0.67834,0.15515 -1.35668,0.3103 -2.05558,0.47014 -2.17022,0.49469 -4.34322,0.97552 -6.51683,1.4551 -2.84151,0.63709 -5.68163,1.28015 -8.52134,1.92523 -0.68231,0.15364 -1.36462,0.30729 -2.06759,0.46559 -4.46743,1.01956 -8.83958,2.20714 -13.18822,3.662 -1.83431,0.48131 -1.83431,0.48131 -5.5681,0.48131 2.20632,-7.46204 4.52557,-14.88795 6.85409,-22.3125 1.17962,-3.76318 2.35497,-7.5277 3.53005,-11.2923 0.96849,-3.10161 1.93983,-6.20225 2.91749,-9.30097 1.9941,-6.33219 3.93005,-12.67468 5.7757,-19.05181 1.82985,-6.31401 3.8658,-12.54169 5.97603,-18.76695 1.75637,-5.21426 3.28591,-10.46885 4.75862,-15.77061 1.37715,-4.69852 2.95729,-9.32158 4.52868,-13.95795 1.77065,-5.25831 3.318,-10.55478 4.80216,-15.90143 1.39455,-4.75582 2.99487,-9.43584 4.58564,-14.12888 1.81623,-5.39262 3.42459,-10.81523 4.81081,-16.33579 z"
     fill="#e5027b"
     id="path4-7"
     style="stroke-width:0.933448" />
  <path
     d="m 241.78269,183.57288 c 1.07382,1.07382 2.14735,2.14797 3.21966,3.2233 0.9894,0.98692 1.98388,1.96877 2.98266,2.9462 3.42033,3.36629 6.64133,6.84246 9.77567,10.47576 1.9589,2.25558 3.95522,4.47426 5.95802,6.69093 3.04961,3.3793 6.06294,6.78601 9.05006,10.22051 1.8989,2.15783 3.8336,4.28089 5.76842,6.40651 3.7585,4.15683 7.31007,8.45277 10.81122,12.82763 1.86569,2.3136 1.86569,2.3136 4.0182,4.33177 1.6226,1.68458 1.6226,1.68458 1.6226,3.55148 -6.00414,1.51309 -12.00922,3.0224 -18.01491,4.52936 -2.033,0.51057 -4.06581,1.02193 -6.0984,1.53418 -12.99471,3.27418 -26.00958,6.40734 -39.089,9.32542 -4.76369,1.06818 -9.51826,2.17633 -14.27384,3.27999 1.51291,-6.60511 3.35496,-13.00671 5.55579,-19.41508 1.73975,-5.13126 3.24424,-10.316 4.71213,-15.53087 1.97509,-7.01348 4.05201,-13.97802 6.25701,-20.92234 0.93498,-2.96172 1.82988,-5.93388 2.71284,-8.91152 0.25449,-0.85785 0.50899,-1.71571 0.77119,-2.59956 0.4996,-1.68946 0.99678,-3.37965 1.49132,-5.07061 0.22562,-0.76219 0.45123,-1.5244 0.68369,-2.30969 0.30006,-1.02327 0.30006,-1.02327 0.60619,-2.06721 0.54603,-1.58272 0.54603,-1.58272 1.47948,-2.51616 z"
     fill="#e5037c"
     id="path5-0"
     style="stroke-width:0.933448" />
</svg>
