<?xml version="1.0" encoding="UTF-8" standalone="no"?>
<svg
   version="1.0"
   width="432.000000pt"
   height="432.000000pt"
   viewBox="0 0 432.000000 432.000000"
   preserveAspectRatio="xMidYMid meet"
   id="svg4"
   sodipodi:docname="favicon-cubos-flix.svg"
   inkscape:version="1.3.2 (091e20e, 2023-11-25, custom)"
   xmlns:inkscape="http://www.inkscape.org/namespaces/inkscape"
   xmlns:sodipodi="http://sodipodi.sourceforge.net/DTD/sodipodi-0.dtd"
   xmlns="http://www.w3.org/2000/svg"
   xmlns:svg="http://www.w3.org/2000/svg">
  <defs
     id="defs4" />
  <sodipodi:namedview
     id="namedview4"
     pagecolor="#505050"
     bordercolor="#ffffff"
     borderopacity="1"
     inkscape:showpageshadow="0"
     inkscape:pageopacity="0"
     inkscape:pagecheckerboard="1"
     inkscape:deskcolor="#505050"
     inkscape:document-units="pt"
     inkscape:zoom="1.4114583"
     inkscape:cx="287.64576"
     inkscape:cy="288"
     inkscape:window-width="1920"
     inkscape:window-height="1009"
     inkscape:window-x="1912"
     inkscape:window-y="-8"
     inkscape:window-maximized="1"
     inkscape:current-layer="g4" />
  <metadata
     id="metadata1">
Created by potrace 1.16, written by Peter Selinger 2001-2019
</metadata>
  <g
     transform="translate(0.000000,432.000000) scale(0.100000,-0.100000)"
     fill="#171717"
     stroke="none"
     id="g4">
    <path
       d="M721 3409 c-170 -33 -319 -183 -350 -354 -15 -78 -15 -1530 -1 -1606 34 -180 179 -325 359 -359 74 -14 2788 -14 2862 0 180 34 325 179 359 359 14 73 14 1529 0 1602 -34 180 -179 325 -359 359 -67 12 -2805 12 -2870 -1z m179 -349 l0 -180 -180 0 -180 0 0 68 c0 94 23 156 80 213 56 56 112 77 208 78 l72 1 0 -180z m2340 -810 l0 -990 -1080 0 -1080 0 0 990 0 990 1080 0 1080 0 0 -990z m365 973 c56 -19 121 -79 150 -138 13 -27 21 -68 23 -122 l4 -83 -181 0 -181 0 0 180 0 180 68 0 c38 0 90 -7 117 -17z m-2705 -703 l0 -180 -180 0 -180 0 0 180 0 180 180 0 180 0 0 -180z m2880 0 l0 -180 -180 0 -180 0 0 180 0 180 180 0 180 0 0 -180z m-2880 -540 l0 -180 -180 0 -180 0 0 180 0 180 180 0 180 0 0 -180z m2880 0 l0 -180 -180 0 -180 0 0 180 0 180 180 0 180 0 0 -180z m-2880 -540 l0 -180 -68 0 c-94 0 -156 23 -212 80 -57 56 -80 118 -80 212 l0 68 180 0 180 0 0 -180z m2880 112 c0 -93 -22 -153 -79 -211 -56 -58 -117 -81 -213 -81 l-68 0 0 180 0 180 180 0 180 0 0 -68z"
       id="path1"
       style="fill:#212121;fill-opacity:1" />
    <path
       d="M1907 3084 c-85 -263 -508 -1627 -505 -1629 4 -4 347 81 353 87 1 1 94 299 205 662 200 652 201 658 182 680 -10 11 -56 64 -102 116 -130 150 -115 140 -133 84z"
       id="path2" />
    <path
       d="M2241 2633 c-16 -54 -95 -311 -175 -572 -80 -261 -144 -476 -142 -478 3 -4 327 74 333 80 2 2 59 185 127 407 l124 404 -115 128 c-63 70 -116 128 -118 128 -2 0 -18 -44 -34 -97z"
       id="path3" />
    <path
       d="M2518 2022 c-53 -174 -96 -318 -94 -319 1 -1 118 27 261 61 143 35 284 69 313 76 29 7 52 16 50 20 -5 13 -421 480 -427 480 -4 0 -50 -143 -103 -318z"
       id="path4" />
    <path
       style="fill:#e5007b;stroke-width:0.708487;fill-opacity:1"
       d="m 324.59074,344.86032 c 10.67622,-36.38914 24.3046,-79.88615 25.02974,-79.88615 1.14811,0 55.98838,61.77172 55.98838,63.06494 0,0.2935 -0.71735,0.73397 -1.5941,0.97883 -7.28639,2.03493 -54.74073,13.57667 -78.95938,19.20433 -1.55534,0.36141 -1.55589,0.35748 -0.46464,-3.36195 z"
       id="path5"
       transform="matrix(7.5,0,0,-7.5,0,4320)" />
    <path
       style="fill:#e5007b;fill-opacity:1;stroke-width:0.708487"
       d="m 257.13975,363.55965 c 0.19986,-0.64267 2.13762,-7.19352 4.30613,-14.55743 6.67764,-22.67616 35.89784,-118.47958 39.40441,-129.1941 1.17964,-3.60443 2.40925,-6.55351 2.73247,-6.55351 0.32323,0 6.40931,6.45609 13.52463,14.34687 7.11531,7.89077 13.82924,15.30886 14.91985,16.48464 l 1.98291,2.13777 -13.78918,44.85037 c -7.58405,24.66771 -15.07865,48.94035 -16.65466,53.93922 l -2.86547,9.08885 -5.46481,1.46938 c -6.36392,1.71114 -23.27479,5.79097 -32.2353,7.77693 -5.66309,1.25513 -6.19159,1.27415 -5.86098,0.21101 z"
       id="path6"
       transform="matrix(7.5,0,0,-7.5,0,4320)" />
    <path
       style="fill:#e5007b;fill-opacity:1;stroke-width:0.708487"
       d="m 187.70182,380.57083 c 0.19907,-0.6468 2.57886,-8.50884 5.28841,-17.4712 18.30289,-60.54025 62.53562,-201.91699 63.46474,-202.84611 0.25962,-0.25962 2.12324,1.2775 4.14137,3.41582 4.89304,5.18443 24.70701,28.04365 25.43446,29.34353 1.08685,1.94209 -2.64588,15.83258 -15.72043,58.50005 -2.80603,9.15719 -8.76195,28.60516 -13.23538,43.21771 -14.54691,47.51774 -23.07189,74.73419 -23.5839,75.29278 -0.46394,0.50615 -30.33412,8.20317 -41.34145,10.65296 -4.44974,0.99033 -4.78267,0.98243 -4.44782,-0.10554 z"
       id="path7"
       transform="matrix(7.5,0,0,-7.5,0,4320)" />
  </g>
</svg>
